<?xml version="1.0" encoding="UTF-8" standalone="no"?>
<!-- Created with Inkscape (http://www.inkscape.org/) -->

<svg
   width="210mm"
   height="297mm"
   viewBox="0 0 210 297"
   version="1.1"
   id="svg1"
   inkscape:version="1.3.2 (091e20e, 2023-11-25, custom)"
   sodipodi:docname="game.svg"
   xmlns:inkscape="http://www.inkscape.org/namespaces/inkscape"
   xmlns:sodipodi="http://sodipodi.sourceforge.net/DTD/sodipodi-0.dtd"
   xmlns:xlink="http://www.w3.org/1999/xlink"
   xmlns="http://www.w3.org/2000/svg"
   xmlns:svg="http://www.w3.org/2000/svg">
  <sodipodi:namedview
     id="namedview1"
     pagecolor="#ffffff"
     bordercolor="#000000"
     borderopacity="0.25"
     inkscape:showpageshadow="2"
     inkscape:pageopacity="0.0"
     inkscape:pagecheckerboard="0"
     inkscape:deskcolor="#d1d1d1"
     inkscape:document-units="mm"
     inkscape:zoom="0.396875"
     inkscape:cx="123.46457"
     inkscape:cy="230.55118"
     inkscape:window-width="1920"
     inkscape:window-height="1129"
     inkscape:window-x="-8"
     inkscape:window-y="-8"
     inkscape:window-maximized="1"
     inkscape:current-layer="layer1" />
  <defs
     id="defs1">
    <rect
       x="147.87997"
       y="684.16757"
       width="876.5897"
       height="128.28143"
       id="rect29" />
    <rect
       x="240.52766"
       y="190.64044"
       width="269.03464"
       height="105.1195"
       id="rect28" />
    <linearGradient
       id="linearGradient24"
       inkscape:collect="always">
      <stop
         style="stop-color:#b08d7d;stop-opacity:1;"
         offset="0"
         id="stop25" />
      <stop
         style="stop-color:#c09f8f;stop-opacity:1;"
         offset="0.25697908"
         id="stop28" />
      <stop
         style="stop-color:#ffe7d6;stop-opacity:1;"
         offset="1"
         id="stop26" />
    </linearGradient>
    <inkscape:path-effect
       effect="fillet_chamfer"
       id="path-effect24"
       is_visible="true"
       lpeversion="1"
       nodesatellites_param="F,0,0,1,0,0,0,1 @ F,0,0,1,0,0,0,1 @ F,0,0,1,0,0,0,1 @ F,0,0,1,0,0,0,1"
       radius="0"
       unit="px"
       method="auto"
       mode="F"
       chamfer_steps="1"
       flexible="false"
       use_knot_distance="true"
       apply_no_radius="true"
       apply_with_radius="true"
       only_selected="false"
       hide_knots="false" />
    <linearGradient
       id="linearGradient22"
       inkscape:collect="always">
      <stop
         style="stop-color:#ffffff;stop-opacity:0.44535518;"
         offset="0"
         id="stop23" />
      <stop
         style="stop-color:#f3f3f3;stop-opacity:0;"
         offset="1"
         id="stop24" />
    </linearGradient>
    <linearGradient
       id="linearGradient21"
       inkscape:collect="always">
      <stop
         style="stop-color:#ffffff;stop-opacity:1;"
         offset="0.14122136"
         id="stop21" />
      <stop
         style="stop-color:#b2b2b2;stop-opacity:0;"
         offset="1"
         id="stop22" />
    </linearGradient>
    <linearGradient
       id="linearGradient15"
       inkscape:collect="always">
      <stop
         style="stop-color:#ffffff;stop-opacity:0.3989071;"
         offset="0"
         id="stop15" />
      <stop
         style="stop-color:#ffffff;stop-opacity:0;"
         offset="1"
         id="stop16" />
    </linearGradient>
    <linearGradient
       id="swatch10"
       inkscape:swatch="solid">
      <stop
         style="stop-color:#000000;stop-opacity:1;"
         offset="0"
         id="stop10" />
    </linearGradient>
    <linearGradient
       id="linearGradient7"
       inkscape:collect="always">
      <stop
         style="stop-color:#bfbfbf;stop-opacity:1;"
         offset="0"
         id="stop7" />
      <stop
         style="stop-color:#ffffff;stop-opacity:1;"
         offset="1"
         id="stop8" />
    </linearGradient>
    <linearGradient
       id="linearGradient5"
       inkscape:collect="always">
      <stop
         style="stop-color:#000000;stop-opacity:1;"
         offset="0"
         id="stop5" />
      <stop
         style="stop-color:#6c0909;stop-opacity:0.57254902;"
         offset="0.35380799"
         id="stop17" />
      <stop
         style="stop-color:#ff1616;stop-opacity:0;"
         offset="1"
         id="stop6" />
    </linearGradient>
    <filter
       inkscape:label="Cracked Glass"
       inkscape:menu="Textures"
       inkscape:menu-tooltip="Under a cracked glass"
       style="color-interpolation-filters:sRGB;"
       id="filter4"
       x="-0.071146249"
       y="-0.0465718"
       width="1.1422925"
       height="1.0931436">
      <feTurbulence
         baseFrequency="0.1"
         seed="50"
         numOctaves="5"
         result="result1"
         type="fractalNoise"
         id="feTurbulence1" />
      <feGaussianBlur
         stdDeviation="4"
         result="result7"
         id="feGaussianBlur1" />
      <feDisplacementMap
         result="result5"
         in="SourceGraphic"
         scale="20"
         xChannelSelector="G"
         in2="result7"
         id="feDisplacementMap1" />
      <feComposite
         result="result2"
         operator="in"
         in2="result1"
         in="result5"
         id="feComposite1" />
      <feGaussianBlur
         stdDeviation="1"
         result="result6"
         id="feGaussianBlur2" />
      <feSpecularLighting
         surfaceScale="-3"
         result="result4"
         specularConstant="3.5"
         specularExponent="35"
         in="result6"
         id="feSpecularLighting2">
        <feDistantLight
           elevation="45"
           azimuth="225"
           id="feDistantLight2" />
      </feSpecularLighting>
      <feComposite
         k1="1.7"
         k3="0.7"
         in2="result2"
         in="result4"
         operator="arithmetic"
         result="result91"
         id="feComposite2" />
      <feBlend
         result="fbSourceGraphic"
         mode="multiply"
         in2="result91"
         id="feBlend2" />
      <feComposite
         in2="fbSourceGraphic"
         in="fbSourceGraphic"
         result="result2"
         operator="arithmetic"
         id="feComposite3" />
      <feComposite
         in="result2"
         result="result4"
         operator="arithmetic"
         k2="2"
         k3="2"
         in2="fbSourceGraphic"
         id="feComposite4" />
      <feBlend
         mode="screen"
         in="result4"
         in2="result4"
         id="feBlend4" />
    </filter>
    <linearGradient
       inkscape:collect="always"
       xlink:href="#linearGradient5"
       id="linearGradient6"
       x1="104.02802"
       y1="144.21353"
       x2="104.06254"
       y2="122.62411"
       gradientUnits="userSpaceOnUse" />
    <linearGradient
       inkscape:collect="always"
       xlink:href="#linearGradient7"
       id="linearGradient8"
       x1="103.70899"
       y1="132.99501"
       x2="103.9447"
       y2="99.525261"
       gradientUnits="userSpaceOnUse"
       gradientTransform="matrix(1.0605723,0,0,1.0605723,-7.5742025,-17.867511)" />
    <linearGradient
       inkscape:collect="always"
       xlink:href="#linearGradient7"
       id="linearGradient10"
       gradientUnits="userSpaceOnUse"
       x1="103.17345"
       y1="134.18544"
       x2="103.31818"
       y2="99.15979"
       gradientTransform="matrix(0.56430794,0,0,0.56430794,12.748161,55.065859)" />
    <clipPath
       clipPathUnits="userSpaceOnUse"
       id="clipPath12">
      <g
         inkscape:label="Clip"
         id="use12" />
    </clipPath>
    <clipPath
       clipPathUnits="userSpaceOnUse"
       id="clipPath14">
      <path
         id="path14"
         style="display:inline;fill:#ff0000;stroke-width:0.207431;stroke-opacity:0.2"
         d="m 136.00026,126.26932 c 3.88687,15.62752 -14.25969,17.97821 -31.8499,17.97821 -17.590203,0 -35.736756,-2.35069 -31.849882,-17.97821 3.92933,-15.7982 14.259679,-28.335297 31.849882,-28.335299 17.59021,-3e-6 27.92537,12.556379 31.8499,28.335299 z"
         sodipodi:nodetypes="sssss"
         inkscape:label="path4-5" />
    </clipPath>
    <clipPath
       clipPathUnits="userSpaceOnUse"
       id="clipPath14-8">
      <path
         id="path14-2"
         style="display:inline;fill:#ff0000;stroke-width:0.207431;stroke-opacity:0.2"
         d="m 136.00026,126.26932 c 3.88687,15.62752 -14.25969,17.97821 -31.8499,17.97821 -17.590203,0 -35.736756,-2.35069 -31.849882,-17.97821 3.92933,-15.7982 14.259679,-28.335297 31.849882,-28.335299 17.59021,-3e-6 27.92537,12.556379 31.8499,28.335299 z"
         sodipodi:nodetypes="sssss"
         inkscape:label="path4-5" />
    </clipPath>
    <linearGradient
       inkscape:collect="always"
       xlink:href="#linearGradient7"
       id="linearGradient14"
       gradientUnits="userSpaceOnUse"
       gradientTransform="matrix(0.56430794,0,0,0.56430794,12.748161,55.065859)"
       x1="103.17345"
       y1="134.18544"
       x2="103.31818"
       y2="99.15979" />
    <radialGradient
       inkscape:collect="always"
       xlink:href="#linearGradient15"
       id="radialGradient16"
       cx="86.12487"
       cy="121.96293"
       fx="86.12487"
       fy="121.96293"
       r="6.708333"
       gradientTransform="matrix(2.9237976,0.01034236,-0.01052411,2.9751676,-172.50852,-253.91984)"
       gradientUnits="userSpaceOnUse" />
    <radialGradient
       inkscape:collect="always"
       xlink:href="#linearGradient15"
       id="radialGradient16-2"
       cx="86.12487"
       cy="121.96293"
       fx="86.12487"
       fy="121.96293"
       r="6.708333"
       gradientTransform="matrix(2.9237976,0.01034236,-0.01052411,2.9751676,-124.34751,-253.70204)"
       gradientUnits="userSpaceOnUse" />
    <radialGradient
       inkscape:collect="always"
       xlink:href="#linearGradient21"
       id="radialGradient22"
       cx="97.232162"
       cy="141.50979"
       fx="97.232162"
       fy="141.50979"
       r="2.1217451"
       gradientTransform="matrix(1.2161775,0,0,1.6475863,-24.312682,-98.457527)"
       gradientUnits="userSpaceOnUse" />
    <radialGradient
       inkscape:collect="always"
       xlink:href="#linearGradient22"
       id="radialGradient24"
       cx="97.305084"
       cy="141.52438"
       fx="97.305084"
       fy="141.52438"
       r="2.1217444"
       gradientTransform="matrix(0.86986934,9.7331213e-7,-2.6778397e-6,2.3932412,9.2585617,-202.89911)"
       gradientUnits="userSpaceOnUse" />
    <radialGradient
       inkscape:collect="always"
       xlink:href="#linearGradient22"
       id="radialGradient24-1"
       cx="97.305084"
       cy="141.52438"
       fx="97.305084"
       fy="141.52438"
       r="2.1217444"
       gradientTransform="matrix(0.86986934,9.7331213e-7,-2.6778397e-6,2.3932412,26.700571,-202.9675)"
       gradientUnits="userSpaceOnUse" />
    <radialGradient
       inkscape:collect="always"
       xlink:href="#linearGradient21"
       id="radialGradient22-4"
       cx="97.232162"
       cy="141.5098"
       fx="97.232162"
       fy="141.5098"
       r="2.1217451"
       gradientTransform="matrix(1.2161775,0,0,1.6475863,-6.8706718,-98.525917)"
       gradientUnits="userSpaceOnUse" />
    <linearGradient
       inkscape:collect="always"
       xlink:href="#linearGradient24"
       id="linearGradient26"
       x1="106.21575"
       y1="160.88808"
       x2="102.27055"
       y2="146.60478"
       gradientUnits="userSpaceOnUse" />
  </defs>
  <g
     inkscape:label="tlo"
     inkscape:groupmode="layer"
     id="layer1"
     style="display:inline">
    <rect
       style="display:inline;fill:#999999;fill-opacity:1;stroke-width:0.264583;stroke-opacity:0.2;filter:url(#filter4)"
       id="rect1"
       width="168.66666"
       height="257.66666"
       x="20.666672"
       y="19.666672" />
    <path
       d="m 224.00586,670.98672 c 0,3.3125 -1.14063,5.71875 -3.42188,7.21875 -2.25,1.46875 -5.9375,2.20312 -11.0625,2.20312 -6.125,0 -11.29687,-1.10937 -15.51562,-3.32812 -3.9375,-2.09375 -5.90625,-4.5 -5.90625,-7.21875 0,-2.6875 1.28125,-5.125 3.84375,-7.3125 2.6875,-2.3125 5.92187,-3.46875 9.70312,-3.46875 0.59375,0 1.40625,0.0156 2.4375,0.0469 1.03125,0.0313 1.65625,0.0469 1.875,0.0469 h 0.75 c 0.65625,-0.1875 0.98438,-0.5 0.98438,-0.9375 0,-1.09375 -1.1875,-2.20313 -3.5625,-3.32813 -2.84375,-1.375 -6.39063,-2.0625 -10.64063,-2.0625 -6.09375,0 -11.1875,1.96875 -15.28125,5.90625 -4.84375,4.625 -7.26562,11.26563 -7.26562,19.92188 0,2.4375 0.21875,5.125 0.65625,8.0625 2,13.0625 3.79687,21.8125 5.39062,26.25 1.9375,5.40625 4.6875,8.10937 8.25,8.10937 5.375,0 8.0625,-2.875 8.0625,-8.625 0,-2.5625 -0.64062,-6.5625 -1.92187,-12 -0.53125,-2.21875 -1.67188,-3.60937 -3.42188,-4.17187 l -5.53125,-0.9375 c -0.6875,-0.125 -1.14062,-1.0625 -1.35937,-2.8125 -0.125,-1.34375 -0.10937,-2.51563 0.0469,-3.51563 0.59375,0.3125 13.51563,0.67188 38.76563,1.07813 -4.28125,6.71875 -6.42188,14.625 -6.42188,23.71875 0,1.65625 0.0937,2.85937 0.28125,3.60937 -1.03125,1.21875 83.85359,98.79051 79.97859,100.57176 -5.71875,2.65625 -100.00984,-91.25926 -108.19734,-89.60301 -3.8125,0.78125 -7.26562,1.17188 -10.35937,1.17188 -16.90625,0 -25.35938,-10.95313 -25.35938,-32.85938 0,-32.96875 12.54688,-49.45312 37.64063,-49.45312 21.375,0 33.375,6.25 36,18.75 0.375,1.84375 0.5625,3.5 0.5625,4.96875 z m 81.05153,51.84375 c -1.46875,-1.03125 -3.85938,-1.54688 -7.17188,-1.54688 -4,0 -8.51562,0.65625 -13.54687,1.96875 -5.03125,1.3125 -8.96875,2.84375 -11.8125,4.59375 1.09375,-5.25 1.64062,-8.75 1.64062,-10.5 0,-0.53125 -0.0937,-0.78125 -0.28125,-0.75 -0.125,0.0313 -0.32812,0.15627 -0.60937,0.375 -5.25,4.3125 -11.51563,6.9375 -18.79688,7.875 -3.46875,0.4375 -6.40625,0.65625 -8.8125,0.65625 -7.125,0 -12.23437,-1.51562 -15.32812,-4.54687 -2.78125,-2.71875 -4.17188,-6.89063 -4.17188,-12.51563 0,-2.9375 0.28125,-6.17187 0.84375,-9.70312 1.15625,-7 3.65625,-12.78125 7.5,-17.34375 4.625,-5.40625 10.54688,-8.10938 17.76563,-8.10938 7.8125,0 15.42187,3.59375 22.82812,10.78125 0,-1.5625 -0.4375,-3.76562 -1.3125,-6.60937 -0.96875,-3.03125 -2.0625,-5.5 -3.28125,-7.40625 15.375,-2.34375 26,-4.59375 31.875,-6.75 0.5625,1.96875 0.84375,3.95312 0.84375,5.95312 0,1.625 -0.1875,2.625 -0.5625,3 -4.59375,1.5625 -6.89062,2.96875 -6.89062,4.21875 v 0.0937 c 0,1.03125 0.0469,2.65625 0.14062,4.875 0.0937,2.21875 0.14063,3.92188 0.14063,5.10938 0,10.03125 -1.28125,18.3125 -3.84375,24.84375 2.0625,-1.28125 4.51562,-1.92188 7.35937,-1.92188 1.5,0 2.89063,0.17188 4.17188,0.51563 z m -27.23438,-26.20313 c 0,-1.3125 -1.3125,-2.40625 -3.9375,-3.28125 -2.78125,-0.9375 -6.40625,-1.40625 -10.875,-1.40625 -5.84375,0 -11.46875,1.09375 -16.875,3.28125 -5.25,2.15625 -7.875,4.32813 -7.875,6.51563 0,1.75 1.85938,3.15625 5.57813,4.21875 3.34375,0.9375 7.3125,1.40625 11.90625,1.40625 5.21875,0 10.26562,-1.25 15.14062,-3.75 4.625,-2.40625 6.9375,-4.73438 6.9375,-6.98438 z m 142.08278,-7.40625 c 0,9.03125 -5.67187,17.96875 -17.01562,26.8125 l 12.79687,2.01563 c 0.65625,0.875 1.54688,2.25 2.67188,4.125 -2.4375,-0.125 -6.98438,-0.1875 -13.64063,-0.1875 -6.15625,0 -12.84375,0.0625 -20.0625,0.1875 2.28125,-2.65625 4.70313,-7.03125 7.26563,-13.125 2.78125,-6.625 4.17187,-11.82813 4.17187,-15.60938 0,-3.1875 -1.09375,-4.78125 -3.28125,-4.78125 -3.5625,0 -7.35937,3 -11.39062,9 -3.28125,4.875 -5.9375,10.39063 -7.96875,16.54688 0,6.21875 0.40625,10.125 1.21875,11.71875 1.28125,0.5 3.40625,1.07812 6.375,1.73437 -0.34375,0.59375 -0.95313,2.125 -1.82813,4.59375 l -25.54687,-5.85937 c 3,-5.875 4.5,-13.39063 4.5,-22.54688 0,-4.15625 -0.0781,-6.78125 -0.23438,-7.875 -0.53125,-3.78125 -1.82812,-5.67187 -3.89062,-5.67187 -0.78125,0 -1.79688,0.3125 -3.04688,0.9375 -5.1875,2.59375 -8.96875,8.57812 -11.34375,17.95312 0.0625,2.96875 1.49997,8.60938 4.3125,16.92188 -6.75,-3.09375 -14.07812,-4.64063 -21.98437,-4.64063 -5.15625,0 -8.70313,0.84375 -10.64063,2.53125 l 0.1875,-10.875 c 1,-0.375 2.21875,-0.5625 3.65625,-0.5625 2.375,0 4.70313,0.51563 6.98438,1.54688 -2.625,-6.3125 -4.98438,-17.23438 -7.07813,-32.76563 -0.3125,-2.09375 -1.5,-3.32812 -3.5625,-3.70312 -1.90625,-0.0937 -3.79687,-0.20313 -5.67187,-0.32813 -1.15625,-0.15625 -1.73438,-2.0625 -1.73438,-5.71875 h 0.98438 c 3.5625,0 16.09375,-0.57812 37.59375,-1.73437 -3.3125,6.75 -4.96875,14.29687 -4.96875,22.64062 0,1.8125 0.0937,3.34375 0.28125,4.59375 3.71875,-12.25 10.82812,-21.65625 21.32812,-28.21875 2.75,-1.71875 5.14063,-2.57812 7.17188,-2.57812 5.84375,0 8.76562,6.53125 8.76562,19.59375 0,3.84375 -0.20312,7.29687 -0.60937,10.35937 2.96875,-5.09375 6.26562,-9.45312 9.89062,-13.07812 6.28125,-6.1875 12.78125,-9.28125 19.5,-9.28125 4.5625,0 8.34375,1.4375 11.34375,4.3125 3,2.84375 4.5,6.51562 4.5,11.01562 z m 70.92655,4.35938 c 0,1.59375 -0.0625,3.46875 -0.1875,5.625 0,0.375 -0.15625,0.51562 -0.46875,0.42187 -5.3125,-1.1875 -14.01563,-2.76562 -26.10938,-4.73437 -10.75,-1.71875 -16.375,-2.57813 -16.875,-2.57813 -0.71875,0 -1.07812,2.9375 -1.07812,8.8125 0,7.40625 1.625,12.9375 4.875,16.59375 2.46875,2.78125 5.64062,4.26563 9.51562,4.45313 2.1875,0.0937 4.20313,-0.23438 6.04688,-0.98438 0.71875,-0.28125 1.07812,-0.5625 1.07812,-0.84375 0,-0.1875 -0.1875,-0.34375 -0.5625,-0.46875 -4.09375,-0.75 -7.4375,-2.26562 -10.03125,-4.54687 -2.59375,-2.3125 -3.89062,-5.0625 -3.89062,-8.25 0,-2 1.125,-3.60938 3.375,-4.82813 2.28125,-1.25 5.375,-1.875 9.28125,-1.875 2.6875,0 5.53125,0.28125 8.53125,0.84375 8.0625,1.5625 12.09375,4.79688 12.09375,9.70313 0,1.375 -0.375,2.78125 -1.125,4.21875 -2.09375,3.9375 -4.6875,6.75 -7.78125,8.4375 -4.5,2.4375 -11.34375,3.65625 -20.53125,3.65625 -10.5625,0 -19,-3.90625 -25.3125,-11.71875 -5.40625,-6.65625 -8.10938,-14.17188 -8.10938,-22.54688 0,-15.46875 12.64063,-23.20312 37.92188,-23.20312 14.65625,0 23.67187,3.67187 27.04687,11.01562 1.53125,3.34375 2.29688,7.60938 2.29688,12.79688 z m -17.95313,-10.78125 c 0,-1.75 -1.14062,-3.17188 -3.42187,-4.26563 -2.28125,-1.125 -5.29688,-1.6875 -9.04688,-1.6875 -4.375,0 -8.17187,0.40625 -11.39062,1.21875 -3.78125,0.9375 -5.67188,2.20313 -5.67188,3.79688 0,4.03125 6.45313,6.04687 19.35938,6.04687 6.78125,0 10.17187,-1.70312 10.17187,-5.10937 z m 139.08743,-12.09375 c 0,3.5 -0.76562,7.1875 -2.29687,11.0625 -5.15625,12.90625 -13.60938,19.35937 -25.35938,19.35937 -4.8125,0 -9.28125,-1.09375 -13.40625,-3.28125 -2.3125,-1.25 -5.10937,-3.28125 -8.39062,-6.09375 2.0625,9.84375 -27.01196,127.44155 -21.51196,138.19155 -6.72015,1.34403 12.38224,-96.98246 5.61615,-97.82021 -6.134,-0.75948 -38.12168,95.93964 -44.4815,97.33642 -0.3125,-1.125 31.97106,-100.91088 31.97106,-102.22338 0,-1.625 0.29687,-2.54688 0.89062,-2.76563 1.125,-0.3125 2.78125,-0.82812 4.96875,-1.54687 2.34375,-0.875 3.51563,-2.29688 3.51563,-4.26563 0,-0.28125 -0.0156,-0.57812 -0.0469,-0.89062 -1.8125,-13.75 -2.71875,-24.79688 -2.71875,-33.14063 0,-8.78125 0.84375,-17.29687 2.53125,-25.54687 -2.03125,0.71875 -3.92187,1.07812 -5.67187,1.07812 -2.25,0 -4.14063,-0.48437 -5.67188,-1.45312 l 0.84375,-11.8125 c 8.75,4.40625 17.5625,6.60937 26.4375,6.60937 2.8125,0 7.34375,-0.3125 13.59375,-0.9375 6.28125,-0.625 11.03125,-0.9375 14.25,-0.9375 8.59375,0 15.03125,1.90625 19.3125,5.71875 3.75,3.3125 5.625,7.76563 5.625,13.35938 z m -10.73437,2.29687 c 0,-2.34375 -1.89063,-4.20312 -5.67188,-5.57812 -3.65625,-1.34375 -8.48437,-2.01563 -14.48437,-2.01563 -6.59375,0 -12.54688,1.25 -17.85938,3.75 -5.125,2.375 -7.6875,4.90625 -7.6875,7.59375 0,1.6875 2.26563,3.17188 6.79688,4.45313 4.15625,1.1875 8.48437,1.78125 12.98437,1.78125 6,0 11.75,-1 17.25,-3 5.78125,-2.09375 8.67188,-4.42188 8.67188,-6.98438 z m 47.91089,52.64063 c -4.15625,-1.8125 -8.28125,-2.71875 -12.375,-2.71875 -5.46875,0 -11.23438,1.46875 -17.29688,4.40625 -0.4375,0.21875 -0.71875,0.29687 -0.84375,0.23437 -0.15625,-0.0937 -0.17188,-0.39062 -0.0469,-0.89062 4.125,-16.625 6.1875,-30.25 6.1875,-40.875 0,-9.28125 -1.1875,-18.1875 -3.5625,-26.71875 -0.375,-1.28125 -1.25,-2.1875 -2.625,-2.71875 -1.0625,-0.375 -2.875,-0.65625 -5.4375,-0.84375 -1.1875,-1.0625 -1.67188,-3.60938 -1.45313,-7.64063 0.1875,0.0625 0.73438,0.0937 1.64063,0.0937 4.625,0 14.82812,-0.875 30.60937,-2.625 2.125,7.4375 3.1875,15.70313 3.1875,24.79688 0,16.75 -3.14062,31.34375 -9.42187,43.78125 2.25,-1.09375 4.51562,-1.64063 6.79687,-1.64063 1.8125,0 3.35938,0.28125 4.64063,0.84375 z m 85.36404,-2.8125 c -1.46875,-1.03125 -3.85937,-1.54688 -7.17187,-1.54688 -4,0 -8.51563,0.65625 -13.54688,1.96875 -5.03125,1.3125 -8.96875,2.84375 -11.8125,4.59375 1.09375,-5.25 1.64063,-8.75 1.64063,-10.5 0,-0.53125 -0.0937,-0.78125 -0.28125,-0.75 -0.125,0.0313 -0.32813,0.15627 -0.60938,0.375 -5.25,4.3125 -11.51562,6.9375 -18.79687,7.875 -3.46875,0.4375 -6.40625,0.65625 -8.8125,0.65625 -7.125,0 -12.23438,-1.51562 -15.32813,-4.54687 -2.78125,-2.71875 -4.17187,-6.89063 -4.17187,-12.51563 0,-2.9375 0.28125,-6.17187 0.84375,-9.70312 1.15625,-7 3.65625,-12.78125 7.5,-17.34375 4.625,-5.40625 10.54687,-8.10938 17.76562,-8.10938 7.8125,0 15.42188,3.59375 22.82813,10.78125 0,-1.5625 -0.4375,-3.76562 -1.3125,-6.60937 -0.96875,-3.03125 -2.0625,-5.5 -3.28125,-7.40625 15.375,-2.34375 26,-4.59375 31.875,-6.75 0.5625,1.96875 0.84375,3.95312 0.84375,5.95312 0,1.625 -0.1875,2.625 -0.5625,3 -4.59375,1.5625 -6.89063,2.96875 -6.89063,4.21875 v 0.0937 c 0,1.03125 0.0469,2.65625 0.14063,4.875 0.0937,2.21875 0.14062,3.92188 0.14062,5.10938 0,10.03125 -1.28125,18.3125 -3.84375,24.84375 2.0625,-1.28125 4.51563,-1.92188 7.35938,-1.92188 1.5,0 2.89062,0.17188 4.17187,0.51563 z m -27.23437,-26.20313 c 0,-1.3125 -1.3125,-2.40625 -3.9375,-3.28125 -2.78125,-0.9375 -6.40625,-1.40625 -10.875,-1.40625 -5.84375,0 -11.46875,1.09375 -16.875,3.28125 -5.25,2.15625 -7.875,4.32813 -7.875,6.51563 0,1.75 1.85937,3.15625 5.57812,4.21875 3.34375,0.9375 7.3125,1.40625 11.90625,1.40625 5.21875,0 10.26563,-1.25 15.14063,-3.75 4.625,-2.40625 6.9375,-4.73438 6.9375,-6.98438 z m 113.48901,-17.95312 -0.51562,5.48437 c -4.1875,-1.375 -6.64063,-2.04687 -7.35938,-2.01562 -1.15625,0.0625 -2.09375,2.01559 -2.8125,5.85937 -0.53125,2.84375 -1.17187,8.3125 -1.92187,16.40625 -0.78125,8.53125 -1.64063,14.35938 -2.57813,17.48438 -1.96875,6.46875 -4.6875,11.04687 -8.15625,13.73437 -4.5,3.4375 -11.51562,5.15625 -21.04687,5.15625 -14.59375,0 -25.10938,-2.17187 -31.54688,-6.51562 -2.03125,-1.375 -3.76562,-3.5 -5.20312,-6.375 -1.40625,-2.78125 -2.10938,-5.39063 -2.10938,-7.82813 0,-3.1875 1.64063,-5.625 4.92188,-7.3125 3.09375,-1.59375 7.34375,-2.39062 12.75,-2.39062 5.5625,0 10.23437,1.03125 14.01562,3.09375 3.4375,1.875 5.15625,3.98437 5.15625,6.32812 0,4.75 -3.32812,8.07813 -9.98437,9.98438 -0.5625,0.15625 -2.9375,0.64062 -7.125,1.45312 -2.28125,0.46875 -3.42188,1 -3.42188,1.59375 0,1.34375 3.45313,2.01563 10.35938,2.01563 5.1875,0 8.875,-0.57813 11.0625,-1.73438 3.65625,-1.9375 6.5,-5.03125 8.53125,-9.28125 1.46875,-3.03125 2.20312,-5.59375 2.20312,-7.6875 -0.0937,-0.75 -5.42187,-5.20312 -15.98437,-13.35937 -10.8125,-8.375 -17.95313,-13.46875 -21.42188,-15.28125 -1.1875,0 -4.71875,1.57812 -10.59375,4.73437 -0.5,0.28125 -0.75,0.15625 -0.75,-0.375 0,-1.3125 0.0156,-3.01562 0.0469,-5.10937 0.0313,-2.09375 0.0469,-3.46875 0.0469,-4.125 v -2.67188 c 15.53125,-2.53125 27.4375,-5.98437 35.71875,-10.35937 0.78125,1.40625 2,3.51562 3.65625,6.32812 -1.5625,0.40625 -4.1875,0.875 -7.875,1.40625 0,3.375 3.04688,8.01563 9.14063,13.92188 5.15625,4.96875 9.53125,8.35937 13.125,10.17187 1.71875,-2.5625 3.9375,-6.8125 6.65625,-12.75 2.65625,-5.8125 3.98437,-9.26562 3.98437,-10.35937 -6.5625,0.0313 -11.32812,-0.0312 -14.29687,-0.1875 0.46875,-1.96875 1.32812,-5.14063 2.57812,-9.51563 9.125,0.34375 19.375,3.70313 30.75,10.07813 z m 66.42651,14.90625 c 0,1.59375 -0.0625,3.46875 -0.1875,5.625 0,0.375 -0.15625,0.51562 -0.46875,0.42187 -5.3125,-1.1875 -14.01562,-2.76562 -26.10937,-4.73437 -10.75,-1.71875 -16.375,-2.57813 -16.875,-2.57813 -0.71875,0 -1.07813,2.9375 -1.07813,8.8125 0,7.40625 1.625,12.9375 4.875,16.59375 2.46875,2.78125 5.64063,4.26563 9.51563,4.45313 2.1875,0.0937 4.20312,-0.23438 6.04687,-0.98438 0.71875,-0.28125 1.07813,-0.5625 1.07813,-0.84375 0,-0.1875 -0.1875,-0.34375 -0.5625,-0.46875 -4.09375,-0.75 -7.4375,-2.26562 -10.03125,-4.54687 -2.59375,-2.3125 -3.89063,-5.0625 -3.89063,-8.25 0,-2 1.125,-3.60938 3.375,-4.82813 2.28125,-1.25 5.375,-1.875 9.28125,-1.875 2.6875,0 5.53125,0.28125 8.53125,0.84375 8.0625,1.5625 12.09375,4.79688 12.09375,9.70313 0,1.375 -0.375,2.78125 -1.125,4.21875 -2.09375,3.9375 -4.6875,6.75 -7.78125,8.4375 -4.5,2.4375 -11.34375,3.65625 -20.53125,3.65625 -10.5625,0 -19,-3.90625 -25.3125,-11.71875 -5.40625,-6.65625 -8.10937,-14.17188 -8.10937,-22.54688 0,-15.46875 12.64062,-23.20312 37.92187,-23.20312 14.65625,0 23.67188,3.67187 27.04688,11.01562 1.53125,3.34375 2.29687,7.60938 2.29687,12.79688 z m -17.95312,-10.78125 c 0,-1.75 -1.14063,-3.17188 -3.42188,-4.26563 -2.28125,-1.125 -5.29687,-1.6875 -9.04687,-1.6875 -4.375,0 -8.17188,0.40625 -11.39063,1.21875 -3.78125,0.9375 -5.67187,2.20313 -5.67187,3.79688 0,4.03125 6.45312,6.04687 19.35937,6.04687 6.78125,0 10.17188,-1.70312 10.17188,-5.10937 z m 94.41095,6.84375 c 0,4.375 -3.96875,7.59375 -11.90625,9.65625 -4.59375,1.21875 -8.75,1.82812 -12.46875,1.82812 -6.78125,0 -10.17188,-1.84375 -10.17188,-5.53125 0,-4.1875 1.75,-7.73437 5.25,-10.64062 2.78125,-2.3125 6.3125,-3.98438 10.59375,-5.01563 0.375,-0.0937 0.5625,-0.35937 0.5625,-0.79687 0,-0.71875 -0.78125,-1.48438 -2.34375,-2.29688 -1.78125,-0.90625 -3.84375,-1.35937 -6.1875,-1.35937 -4.25,0 -7.98437,1.1875 -11.20312,3.5625 -3.96875,2.9375 -5.95313,7.09375 -5.95313,12.46875 0,4.4375 1.40625,11.20312 4.21875,20.29687 0.25,0.78125 1.875,1.48438 4.875,2.10938 3.3125,0.65625 7.5,1.15625 12.5625,1.5 -0.4375,1.96875 -0.96875,4.34375 -1.59375,7.125 -1.21875,-0.0625 -3.1211,0.60622 -5.39062,-0.0937 -33.71412,-10.39738 -101.56771,92.66994 -115.59896,96.26369 -0.9375,-1.40625 71.27083,-94.49807 70.64583,-97.52932 -0.0625,-0.34375 0.10941,-0.59375 0.51563,-0.75 3.75,-1.5625 5.65625,-2.34375 5.71875,-2.34375 1.65625,-0.875 2.53125,-1.92187 2.625,-3.14062 0.40625,-3.28125 0.8125,-6.54688 1.21875,-9.79688 0.71875,-6.3125 1.07812,-11.20312 1.07812,-14.67187 0,-3.75 -0.42187,-5.92188 -1.26562,-6.51563 -1.03125,-0.78125 -2.53125,-1.17187 -4.5,-1.17187 -0.71875,0 -2,0.15625 -3.84375,0.46875 -0.5,0.0937 -0.75,0.0312 -0.75,-0.1875 0,-0.46875 -0.20313,-2.15625 -0.60938,-5.0625 -0.375,-2.9375 -0.5625,-4.57813 -0.5625,-4.92188 0,-0.4375 0.26563,-0.59375 0.79688,-0.46875 2.65625,0.71875 5.34375,1.07813 8.0625,1.07813 6.625,0 13.53125,-2.40625 20.71875,-7.21875 -0.40625,2.46875 -0.92188,5.67187 -1.54688,9.60937 5,-4.6875 11.95313,-7.03125 20.85938,-7.03125 12.09375,0 20.0625,4.54688 23.90625,13.64063 1.125,2.75 1.6875,5.0625 1.6875,6.9375 z"
       id="text28"
       style="font-size:96px;line-height:0.2;font-family:Ravie;-inkscape-font-specification:'Ravie, Normal';letter-spacing:1.08278px;white-space:pre;stroke-width:0.657638"
       transform="matrix(0.20037106,0,0,0.20037106,-6.5514695,46.089652)"
       aria-label="Game Player"
       sodipodi:nodetypes="scscscssscscscsccssccccccscccssscsscsscscccscsccsccccscsssscsccscscscscsscccsccssccccccscssccsccscccccscscsssccscsscccsscccsccscscsccscsscsscscsssscscccscsccscscsccscscssscscscscscscccsccccscscscccsscscccscsccsccccscsssscsccscscscscscccccccsccscsssccssccccccsssccccccccccscscccsscccsccscscsccscsscsscscsssscssccscscsccccsccccccscscscscsccscss" />
  </g>
  <g
     inkscape:groupmode="layer"
     id="layer2"
     inkscape:label="kapelusz"
     sodipodi:insensitive="true">
    <g
       id="g6"
       transform="matrix(1.2161775,0,0,1.2161775,-24.312682,-33.164989)">
      <path
         id="path4"
         style="fill:#ff0000;stroke-width:0.207431;stroke-opacity:0.2"
         d="m 135.9224,126.1558 c 3.88688,15.62752 -14.25968,17.97821 -31.84989,17.97821 -17.590204,0 -35.736756,-2.35069 -31.849883,-17.97821 3.92933,-15.7982 14.259679,-28.335297 31.849883,-28.335299 17.59021,-3e-6 27.92536,12.556379 31.84989,28.335299 z"
         sodipodi:nodetypes="sssss" />
      <path
         id="path5"
         style="fill:url(#linearGradient6);stroke-width:0.264583;stroke-opacity:0.2"
         d="m 134.45037,133.81996 c -0.0715,6.7459 -10.62904,10.42617 -30.44675,10.34895 -18.601301,-0.0725 -30.564612,-3.5138 -30.446754,-10.34895 0.09854,-5.71471 13.631483,-10.34894 30.446754,-10.34894 16.81527,0 30.50731,4.6337 30.44675,10.34894 z"
         sodipodi:nodetypes="sssss" />
    </g>
    <ellipse
       style="opacity:1;fill:url(#radialGradient16);fill-rule:nonzero;stroke:none;stroke-width:0.325666;stroke-dasharray:none;stroke-opacity:1"
       id="path15"
       cx="78.019577"
       cy="109.94135"
       rx="12.555587"
       ry="12.789542" />
    <ellipse
       style="fill:url(#radialGradient16-2);fill-rule:nonzero;stroke:none;stroke-width:0.325666;stroke-dasharray:none;stroke-opacity:1"
       id="path15-4"
       cx="126.1806"
       cy="110.15916"
       rx="12.555587"
       ry="12.789542" />
  </g>
  <g
     inkscape:groupmode="layer"
     id="layer4"
     inkscape:label="twarz"
     sodipodi:insensitive="true">
    <path
       id="path16"
       style="display:inline;opacity:1;fill:#ffe6d5;stroke-width:0.224112"
       d="m 128.71196,145.19117 c -0.21516,9.85405 -11.67003,17.84658 -25.88893,17.84658 -14.218903,0 -25.745605,-7.99019 -25.745601,-17.84658 1e-6,-3.02235 -1.627978,-9.54176 0.284961,-12.0366 4.325456,-5.64122 15.601817,-5.80997 25.46064,-5.80997 8.55367,0 22.4242,-0.0601 25.7708,5.82122 1.88312,3.3094 0.1898,8.74326 0.11809,12.02535 z"
       sodipodi:nodetypes="ssssssss" />
    <path
       id="path19"
       style="opacity:1;fill:#656565;fill-opacity:0.274554;stroke-width:0.20522"
       d="m 136.64454,134.0628 c -3.59246,9.40371 -27.77055,2.65874 -34.36901,2.41129 -9.175613,0 -17.421688,3.84946 -23.720157,3.00499 -5.575299,-0.74751 -10.851559,-2.9867 -10.851558,-5.41628 2e-6,-4.69011 15.432907,-8.49218 34.470375,-8.49218 19.03744,0 36.1441,4.1109 34.47035,8.49218 z"
       sodipodi:nodetypes="ssssss" />
    <path
       id="path21"
       style="opacity:1;stroke-width:0.211615"
       d="m 96.512737,138.97181 c 0,6.42817 -1.15507,7.73971 -2.57991,7.73971 -1.42484,0 -2.62108,-1.31156 -2.5799,-7.73971 0.0438,-6.83347 1.15506,-7.73971 2.5799,-7.73971 1.42484,0 2.57991,0.93148 2.57991,7.73971 z"
       sodipodi:nodetypes="sssss" />
    <path
       id="path21-9"
       style="fill:url(#radialGradient22);stroke-width:0.142219"
       d="m 96.519317,134.69207 c 0,2.90338 -1.15507,3.49576 -2.57991,3.49576 -1.42486,0 -2.6211,-0.59239 -2.5799,-3.49576 0.0438,-3.08644 1.15504,-3.49575 2.5799,-3.49575 1.42484,0 2.57991,0.42071 2.57991,3.49575 z"
       sodipodi:nodetypes="sssss" />
    <path
       id="path21-0"
       style="stroke-width:0.211615"
       d="m 113.87011,138.92084 c 0,6.42817 -1.15506,7.73971 -2.57991,7.73971 -1.42483,0 -2.62108,-1.31156 -2.5799,-7.73971 0.0438,-6.83347 1.15507,-7.73971 2.5799,-7.73971 1.42485,0 2.57991,0.93148 2.57991,7.73971 z"
       sodipodi:nodetypes="sssss" />
    <path
       id="path21-0-9"
       style="fill:url(#radialGradient24);stroke-width:0.177392"
       d="m 95.746527,135.80293 c 0,6.31544 -0.82615,7.60397 -1.84527,7.60397 -1.01912,0 -1.87474,-1.28857 -1.84529,-7.60397 0.0314,-6.71364 0.82617,-7.60399 1.84529,-7.60399 1.01912,0 1.84527,0.91513 1.84527,7.60399 z"
       sodipodi:nodetypes="sssss" />
    <path
       id="path21-9-7"
       style="fill:url(#radialGradient22-4);stroke-width:0.142219"
       d="m 113.96132,134.62367 c 0,2.90339 -1.15507,3.49576 -2.5799,3.49576 -1.42484,0 -2.62108,-0.59239 -2.5799,-3.49576 0.0438,-3.08643 1.15506,-3.49575 2.5799,-3.49575 1.42483,0 2.5799,0.42071 2.5799,3.49575 z"
       sodipodi:nodetypes="sssss" />
    <path
       id="path21-0-9-1"
       style="fill:url(#radialGradient24-1);stroke-width:0.177392"
       d="m 113.18855,135.73453 c 0,6.31544 -0.82615,7.60397 -1.84528,7.60397 -1.01911,0 -1.87473,-1.28857 -1.84527,-7.60397 0.0314,-6.71364 0.82616,-7.60399 1.84527,-7.60399 1.01913,0 1.84528,0.91514 1.84528,7.60399 z"
       sodipodi:nodetypes="sssss" />
    <path
       style="opacity:1;fill:url(#linearGradient26);fill-rule:nonzero;stroke:none;stroke-width:0.174;stroke-dasharray:none;stroke-opacity:1"
       d="m 87.799091,155.74027 c 12.857889,10.07492 29.676519,4.32632 33.351869,0 1.60133,-1.59083 4.46996,-4.14334 4.71404,-9.25132 l 0.17678,-2.88735 c -10.76869,14.18627 -24.91996,9.22143 -38.242689,12.13867 z"
       id="path24"
       inkscape:path-effect="#path-effect24"
       inkscape:original-d="m 87.799091,155.74027 c 12.857889,10.07492 29.676519,4.32632 33.351869,0 1.60133,-1.59083 4.46996,-4.14334 4.71404,-9.25132 l 0.17678,-2.88735 c -10.76869,14.18627 -24.91996,9.22143 -38.242689,12.13867 z"
       sodipodi:nodetypes="ccccc"
       transform="matrix(1.2161775,0,0,1.2161775,-24.312682,-33.164989)" />
  </g>
  <g
     inkscape:groupmode="layer"
     id="layer3"
     inkscape:label="kropki"
     sodipodi:insensitive="true">
    <circle
       style="display:inline;fill:url(#linearGradient8);fill-opacity:1;stroke-width:0.326827;stroke-opacity:0.2"
       id="path6"
       cx="102.60416"
       cy="105.93472"
       r="18.560963" />
    <path
       id="path6-1"
       style="display:inline;fill:url(#linearGradient10);stroke-width:0.174;stroke-opacity:0.2"
       d="m 81.24762,120.93839 a 9.8758926,9.8758926 0 0 1 -9.875893,9.8759 9.8758926,9.8758926 0 0 1 -9.875893,-9.8759 9.8758926,9.8758926 0 0 1 9.875893,-9.87589 9.8758926,9.8758926 0 0 1 9.875893,9.87589 z"
       clip-path="url(#clipPath14)"
       transform="matrix(1.2161775,0,0,1.2161775,-24.312682,-33.164989)" />
    <path
       id="path6-1-1"
       style="display:inline;fill:url(#linearGradient14);stroke-width:0.174;stroke-opacity:0.2"
       d="m 81.24762,120.93839 a 9.8758926,9.8758926 0 0 1 -9.875893,9.8759 9.8758926,9.8758926 0 0 1 -9.875893,-9.8759 9.8758926,9.8758926 0 0 1 9.875893,-9.87589 9.8758926,9.8758926 0 0 1 9.875893,9.87589 z"
       clip-path="url(#clipPath14-8)"
       transform="matrix(-1.2161775,0,0,1.2161775,228.88839,-33.088978)" />
  </g>
</svg>
